<svg width="16" height="16" viewBox="0 0 16 16" fill="none" xmlns="http://www.w3.org/2000/svg">
<circle cx="8" cy="8" r="7.5" fill="url(#paint0_radial_264_3956)" stroke="url(#paint1_linear_264_3956)"/>
<path d="M9.43771 6.80989L9.0673 7.61977H4L4.30167 6.80989H9.43771ZM8.73127 8.38023L8.33795 9.20152H4L4.30167 8.38023H8.73127ZM10.4 4.73764L9.86539 5.87072C9.7432 5.7744 9.60446 5.68061 9.44917 5.58935C9.29387 5.4981 9.12204 5.42205 8.93365 5.36122C8.74527 5.30038 8.53906 5.26996 8.31504 5.26996C7.93572 5.26996 7.60095 5.37009 7.31074 5.57034C7.02053 5.76806 6.79268 6.06971 6.62721 6.47529C6.46428 6.87833 6.38282 7.3891 6.38282 8.0076C6.38282 8.62611 6.46428 9.13688 6.62721 9.53992C6.79268 9.94297 7.02053 10.2421 7.31074 10.4373C7.60095 10.6324 7.93572 10.73 8.31504 10.73C8.53906 10.73 8.74527 10.7009 8.93365 10.6426C9.12204 10.5843 9.29133 10.5108 9.44153 10.4221C9.59427 10.3333 9.72538 10.2446 9.83485 10.1559L10.3771 11.289C10.1047 11.5247 9.79029 11.7022 9.43389 11.8213C9.08003 11.9404 8.70708 12 8.31504 12C7.66333 12 7.08544 11.8416 6.58138 11.5247C6.07987 11.2053 5.68656 10.7478 5.40143 10.1521C5.11631 9.55387 4.97375 8.83904 4.97375 8.0076C4.97375 7.17364 5.11631 6.45754 5.40143 5.85932C5.68656 5.26109 6.07987 4.80228 6.58138 4.48289C7.08544 4.16096 7.66333 4 8.31504 4C8.72235 4 9.1004 4.06464 9.44917 4.19392C9.80048 4.32066 10.1174 4.5019 10.4 4.73764Z" fill="#1B1B1B"/>
<defs>
<radialGradient id="paint0_radial_264_3956" cx="0" cy="0" r="1" gradientUnits="userSpaceOnUse" gradientTransform="translate(8 16) rotate(-90) scale(16)">
<stop stop-color="#FF8A00"/>
<stop offset="1" stop-color="#FFD600"/>
</radialGradient>
<linearGradient id="paint1_linear_264_3956" x1="8" y1="0" x2="8" y2="16" gradientUnits="userSpaceOnUse">
<stop stop-color="white" stop-opacity="0.75"/>
<stop offset="1" stop-color="white" stop-opacity="0"/>
</linearGradient>
</defs>
</svg>
