<svg width="16" height="16" viewBox="0 0 16 16" fill="none" xmlns="http://www.w3.org/2000/svg">
<path d="M5.77877 3.99935H10.2218L10.9684 2.00835C11.0261 1.85468 11.0044 1.68268 10.9111 1.54802C10.8178 1.41302 10.6641 1.33268 10.5001 1.33268H9.2461C8.97677 0.931016 8.5191 0.666016 8.0001 0.666016C7.4811 0.666016 7.02344 0.931016 6.7541 1.33268H5.5001C5.3361 1.33268 5.18244 1.41302 5.08944 1.54802C4.9961 1.68268 4.97444 1.85468 5.0321 2.00835L5.77877 3.99935ZM10.9401 4.99935H5.0601C3.67677 6.23268 1.57677 8.61602 1.68677 11.626C1.7501 13.3293 3.1401 14.666 4.85344 14.666H11.1468C12.8601 14.666 14.2501 13.3293 14.3134 11.626C14.4234 8.61602 12.3234 6.23268 10.9401 4.99935ZM8.5001 12.336V12.4993C8.5001 12.776 8.27677 12.9993 8.0001 12.9993C7.72344 12.9993 7.5001 12.776 7.5001 12.4993V12.3127C6.98677 12.206 6.56344 11.836 6.4001 11.3193C6.31677 11.056 6.46344 10.776 6.72677 10.6927C6.9901 10.6094 7.27344 10.756 7.35344 11.0194C7.41677 11.216 7.59677 11.3493 7.80344 11.3493L8.41677 11.3427C8.73677 11.3393 9.0001 11.076 9.0001 10.756C9.0001 10.4293 8.73677 10.166 8.4101 10.166H7.92344C7.04677 10.166 6.33344 9.45268 6.33344 8.57602C6.33344 7.85268 6.8301 7.23935 7.5001 7.05268V6.83268C7.5001 6.55602 7.72344 6.33268 8.0001 6.33268C8.27677 6.33268 8.5001 6.55602 8.5001 6.83268V7.02268C9.01677 7.13268 9.43344 7.50602 9.59344 8.02268C9.67344 8.28602 9.52677 8.56602 9.2601 8.64935C8.99677 8.72935 8.71677 8.57935 8.63677 8.31602C8.57677 8.11935 8.39344 7.98268 8.18677 7.98268L7.91344 7.98935C7.59344 7.99268 7.33344 8.25602 7.33344 8.57602C7.33344 8.90268 7.59677 9.16602 7.92344 9.16602H8.4101C9.28677 9.16602 10.0001 9.87935 10.0001 10.756C10.0001 11.596 9.33344 12.286 8.5001 12.336Z" fill="white"/>
</svg>
