<svg width="14" height="13" viewBox="0 0 14 13" fill="none" xmlns="http://www.w3.org/2000/svg">
<path d="M6.99961 0.0664062C6.86546 0.0668251 6.7364 0.11778 6.63815 0.209115C6.63746 0.20946 6.63676 0.209808 6.63607 0.210156L0.998568 3.28411C0.914318 3.30603 0.836713 3.34823 0.772526 3.40703L0.769401 3.40911V3.41016C0.715909 3.45999 0.673234 3.52029 0.644026 3.58731C0.614817 3.65432 0.599698 3.72663 0.599609 3.79974C0.599609 3.94119 0.6558 4.07684 0.755819 4.17686C0.855838 4.27688 0.991494 4.33307 1.13294 4.33307V11.7997C1.13294 12.3891 1.61028 12.8664 2.19961 12.8664H11.7996C12.3889 12.8664 12.8663 12.3891 12.8663 11.7997V4.33307C13.0077 4.33307 13.1434 4.27688 13.2434 4.17686C13.3434 4.07684 13.3996 3.94119 13.3996 3.79974C13.3995 3.72663 13.3844 3.65432 13.3552 3.58731C13.326 3.52029 13.2833 3.45999 13.2298 3.41016C13.2298 3.40981 13.2298 3.40946 13.2298 3.40911L13.2277 3.40807C13.1634 3.34874 13.0854 3.30617 13.0007 3.28411L7.36315 0.210156L7.36107 0.209115C7.26282 0.11778 7.13376 0.0668251 6.99961 0.0664062ZM6.46628 3.53307H7.53294V4.38203C8.47961 4.54896 9.11766 5.16896 9.14753 6.01537H8.04961C7.99521 5.5743 7.58524 5.28099 7.02044 5.28099C6.43644 5.28099 6.05065 5.55176 6.05065 5.97682C6.05065 6.32082 6.31658 6.51783 6.97044 6.65703L7.64336 6.80078C8.76496 7.03651 9.24857 7.52006 9.24857 8.3862C9.24803 9.3558 8.60548 9.99754 7.53294 10.1581V10.9997H6.46628V10.1612C5.43588 10.0103 4.78745 9.40306 4.75065 8.50599H5.87982C5.93422 8.95826 6.38993 9.2487 7.04753 9.2487C7.65446 9.2487 8.08398 8.95441 8.08398 8.53307C8.08398 8.17734 7.80524 7.97298 7.12044 7.82578L6.39336 7.67057C5.37629 7.45777 4.87773 6.92853 4.87773 6.07787C4.87773 5.18453 5.49294 4.55478 6.46628 4.38411V3.53307Z" fill="white"/>
</svg>
