<svg width="12" height="12" viewBox="0 0 12 12" fill="none" xmlns="http://www.w3.org/2000/svg">
<path d="M11.2803 0.558594C10.5446 0.558594 6.74955 0.683389 4.28715 3.14547C4.02604 3.40653 3.80657 3.68625 3.61528 3.97109C3.53876 3.96748 2.38422 3.97725 1.5234 4.71922C0.653321 5.46866 0.564421 6.73515 0.560901 6.78859C0.557701 6.83627 0.576326 6.88345 0.611526 6.91609C0.641286 6.94361 0.680276 6.95859 0.720276 6.95859C0.727316 6.95859 0.735111 6.958 0.742151 6.95672L2.55653 6.70547C2.49902 7.05021 2.48158 7.2885 2.48028 7.31797C2.47836 7.36277 2.49515 7.40691 2.52715 7.43859L4.56028 9.47172C4.59036 9.5018 4.63116 9.51859 4.6734 9.51859H4.6809C4.71026 9.5172 4.94693 9.5 5.28965 9.44297L5.04215 11.2567C5.03575 11.3041 5.05044 11.3521 5.0834 11.3873C5.1138 11.42 5.1558 11.4386 5.20028 11.4386C5.2038 11.4386 5.20677 11.4383 5.20965 11.438C5.26341 11.4348 6.53021 11.3455 7.27965 10.4755C8.02249 9.61347 8.02804 8.45452 8.02778 8.38359C8.31262 8.19234 8.59234 7.97278 8.8534 7.71172C11.3155 5.24932 11.4403 1.45427 11.4403 0.718594C11.4403 0.630274 11.3686 0.558594 11.2803 0.558594ZM7.92028 3.11859C8.45052 3.11859 8.88028 3.54835 8.88028 4.07859C8.88028 4.60883 8.45052 5.03859 7.92028 5.03859C7.39004 5.03859 6.96028 4.60883 6.96028 4.07859C6.96028 3.54835 7.39004 3.11859 7.92028 3.11859ZM2.32153 8.19422C1.93433 8.58142 1.52028 9.34259 1.52028 10.3186C1.52028 10.4069 1.59196 10.4786 1.68028 10.4786C2.65596 10.4786 3.41776 10.0645 3.80528 9.67734L3.57903 9.45109C3.46671 9.56309 2.95644 9.83859 2.16028 9.83859C2.16028 9.04531 2.43546 8.53279 2.54778 8.42047L2.32153 8.19422Z" fill="white"/>
</svg>
