<svg width="16" height="16" viewBox="0 0 16 16" fill="none" xmlns="http://www.w3.org/2000/svg">
<path d="M5.33366 3.33203C4.80323 3.33203 4.29452 3.54274 3.91945 3.91782C3.54437 4.29289 3.33366 4.8016 3.33366 5.33203C3.33366 5.86246 3.54437 6.37117 3.91945 6.74624C4.29452 7.12132 4.80323 7.33203 5.33366 7.33203C5.86409 7.33203 6.3728 7.12132 6.74787 6.74624C7.12295 6.37117 7.33366 5.86246 7.33366 5.33203C7.33366 4.8016 7.12295 4.29289 6.74787 3.91782C6.3728 3.54274 5.86409 3.33203 5.33366 3.33203ZM10.667 3.33203C10.1366 3.33203 9.62785 3.54274 9.25278 3.91782C8.87771 4.29289 8.66699 4.8016 8.66699 5.33203C8.66699 5.86246 8.87771 6.37117 9.25278 6.74624C9.62785 7.12132 10.1366 7.33203 10.667 7.33203C11.1974 7.33203 11.7061 7.12132 12.0812 6.74624C12.4563 6.37117 12.667 5.86246 12.667 5.33203C12.667 4.8016 12.4563 4.29289 12.0812 3.91782C11.7061 3.54274 11.1974 3.33203 10.667 3.33203ZM5.33366 8.66536C3.33366 8.66536 0.666992 9.64136 0.666992 10.9987V12.6654H10.0003V10.9987C10.0003 9.64136 7.33366 8.66536 5.33366 8.66536ZM10.667 8.66536C10.4557 8.66536 10.236 8.67855 10.0146 8.69922C10.8026 9.27589 11.3337 10.038 11.3337 10.9987V12.6654H15.3337V10.9987C15.3337 9.64136 12.667 8.66536 10.667 8.66536Z" fill="#52FF00"/>
</svg>
